# File created by Blade
# Date/Time:  Wed Sep 24 19:25:39 2014
# Frame Rate: 120.000 fps
#------------------------------------------------------
:FULLY-SPECIFIED
:DEGREES
1460
root -14.993890 32.802234 -4.074343 15.151254 8.957369 2.640963
Spine -17.375976 9.933196 1.849646
Head 15.392629 -3.154047 1.454450
LeftShoulder -14.965493 27.453495 7.705315
LeftArm 16.029759 26.670757 -73.843543
LeftForeArm 5.868906 0.000000 35.317758
LeftHand -26.201651 -0.000000 -3.338334
LeftHandThumb1 -26.253704 0.000000 33.147579
RightShoulder -19.443865 8.703904 -25.154759
RightArm -8.936487 -4.994406 70.674239
RightForeArm -10.625513 -0.000000 109.414792
RightHand -8.867493 -0.000000 -13.458102
RightHandThumb1 -24.326973 -0.000000 -32.862282
LeftUpLeg -30.923792 8.603652 -1.881731
LeftLeg 120.241728 -0.000000 -0.000000
LeftFoot 39.235853 10.367614 -17.759728
LeftToeBase 28.831061 -0.000000 -0.000000
RightUpLeg -10.709073 3.271377 2.895545
RightLeg 0.581935 -0.000000 -0.000000
RightFoot -8.423278 0.754318 -9.522325
RightToeBase -4.097815 -0.000000 0.000000
1461
root -14.986313 32.806405 -4.082660 15.192778 8.958852 2.693809
Spine -17.438900 9.886698 1.783075
Head 15.408639 -3.187697 1.483149
LeftShoulder -14.964647 27.475264 7.714065
LeftArm 16.013200 26.772719 -73.807123
LeftForeArm 5.837116 -0.000000 35.078350
LeftHand -26.395767 0.000000 -3.221559
LeftHandThumb1 -26.253704 0.000000 33.147579
RightShoulder -19.452292 8.706516 -25.117507
RightArm -8.879727 -5.082681 70.629089
RightForeArm -10.579355 -0.000000 109.396794
RightHand -8.877693 -0.000000 -13.420662
RightHandThumb1 -24.326973 -0.000000 -32.862282
LeftUpLeg -31.049677 8.573830 -2.073745
LeftLeg 121.118707 -0.000000 -0.000000
LeftFoot 39.381944 10.168137 -17.725582
LeftToeBase 28.643847 -0.000000 -0.000000
RightUpLeg -10.785890 3.233834 2.831553
RightLeg 0.642684 -0.000000 -0.000000
RightFoot -8.445639 0.773680 -9.536364
RightToeBase -4.132208 -0.000000 0.000000
1462
root -14.979468 32.809559 -4.090865 15.238024 8.961710 2.739511
Spine -17.507166 9.854533 1.719568
Head 15.400578 -3.247420 1.512507
LeftShoulder -14.959294 27.491955 7.730441
LeftArm 15.999983 26.875490 -73.768378
LeftForeArm 5.811343 0.000000 34.801283
LeftHand -26.280326 -0.000000 -3.203588
LeftHandThumb1 -26.253704 0.000000 33.147579
RightShoulder -19.466174 8.715621 -25.096711
RightArm -8.852791 -5.173489 70.582124
RightForeArm -10.518452 -0.000000 109.380234
RightHand -8.811360 -0.000000 -13.412986
RightHandThumb1 -24.326973 -0.000000 -32.862282
LeftUpLeg -31.191322 8.532776 -2.255502
LeftLeg 121.870265 -0.000000 -0.000000
LeftFoot 39.555239 9.898875 -17.658766
LeftToeBase 28.591499 -0.000000 -0.000000
RightUpLeg -10.849441 3.282936 2.764510
RightLeg 0.663107 -0.000000 -0.000000
RightFoot -8.430974 0.688370 -9.577330
RightToeBase -4.199400 -0.000000 0.000000
1463
root -14.973538 32.812710 -4.099063 15.282266 8.966314 2.775501
Spine -17.572019 9.825243 1.668016
Head 15.376849 -3.296740 1.535463
LeftShoulder -14.965727 27.526263 7.731655
LeftArm 15.994743 26.941506 -73.717842
LeftForeArm 5.684635 -0.000000 34.581964
LeftHand -26.368125 -0.000000 -3.483365
LeftHandThumb1 -26.253704 0.000000 33.147579
RightShoulder -19.490587 8.697274 -25.066966
RightArm -8.789341 -5.278017 70.531157
RightForeArm -10.499468 -0.000000 109.379309
RightHand -8.828134 -0.000000 -13.418809
RightHandThumb1 -24.326973 -0.000000 -32.862282
LeftUpLeg -31.344896 8.511595 -2.443407
LeftLeg 122.519957 -0.000000 -0.000000
LeftFoot 39.720699 9.619270 -17.496005
LeftToeBase 28.519817 -0.000000 -0.000000
RightUpLeg -10.926604 3.292311 2.711733
RightLeg 0.710786 -0.000000 -0.000000
RightFoot -8.420812 0.666697 -9.599787
RightToeBase -4.280131 -0.000000 0.000000
1464
root -14.967705 32.814469 -4.105481 15.309233 8.968827 2.805502
Spine -17.616871 9.797266 1.624054
Head 15.338647 -3.363194 1.557921
LeftShoulder -14.980014 27.536991 7.733161
LeftArm 15.979210 27.033049 -73.671998
LeftForeArm 5.525972 -0.000000 34.328046
LeftHand -26.456848 -0.000000 -3.168579
LeftHandThumb1 -26.253704 0.000000 33.147579
RightShoulder -19.496739 8.701631 -25.051534
RightArm -8.772638 -5.364737 70.480802
RightForeArm -10.438640 -0.000000 109.387393
RightHand -8.791841 -0.000000 -13.414972
RightHandThumb1 -24.326973 -0.000000 -32.862282
LeftUpLeg -31.467461 8.497655 -2.609874
LeftLeg 123.045320 -0.000000 -0.000000
LeftFoot 39.818146 9.393788 -17.377595
LeftToeBase 28.459851 -0.000000 -0.000000
RightUpLeg -10.979849 3.322771 2.663616
RightLeg 0.751125 -0.000000 -0.000000
RightFoot -8.434950 0.614410 -9.634929
RightToeBase -4.301622 -0.000000 0.000000
